<?xml version="1.0" encoding="UTF-8"?><svg id="Capa_2" xmlns="http://www.w3.org/2000/svg" xmlns:xlink="http://www.w3.org/1999/xlink" viewBox="0 0 263.58 185.85"><defs><style>.cls-1{fill:#191818;}.cls-2,.cls-3{fill:none;}.cls-4{clip-path:url(#clippath-1);}.cls-3{stroke:#191818;stroke-linecap:round;stroke-miterlimit:3.99;stroke-width:1px;}.cls-5{clip-path:url(#clippath-2);}.cls-6{clip-path:url(#clippath);}</style><clipPath id="clippath"><rect class="cls-2" x="144.74" y="68.72" width="13.23" height="63.73"/></clipPath><clipPath id="clippath-1"><rect class="cls-2" x="97.84" y="24.23" width="37.27" height="63.73"/></clipPath><clipPath id="clippath-2"><rect class="cls-2" x="99.22" y="167.7" width="75.02" height="18.15"/></clipPath></defs><g id="Capa_1-2"><path d="M199.15,63.78c-1.96.45-.85,2.18-.98,3.4-.21,1.88-3.15,3.42-4.9,3.46-.8-4.22,1.79-4.25,4.08-6.22,2.1-1.81.51-2.47.5-4.9l1.31,4.25ZM196.76,65.46c-1.55.78-4.2,2.66-2.65,4.51,1.83-.41,3.58-1.65,3.69-3.67l-1.04-.84Z"/><path d="M154.68,16.04c-1.16-.25-4.86-1.17-5.66-.93-1.39,1.33-2.41,3.09-4.19,4-1.37.71-6.91,1.95-7.09-.03-.23-2.61,2.26-4.09,3.85-5.66-2.68-.2-5.38,0-7.51,1.81-1.7,1.45-.56,2.63-.74,4.47-.39,4.03-4.52,6.56-8.31,6.77-4.16.23-1.13-6.64.4-8.45,2.21-2.62,4.66-1.87,7.35-3.12.3-.14,2.46-1.38,1.94-1.81-2.74-.41-5.26.01-8,0-2.01.68-5.12.58-6.99,1.19s-2.53,5.06-5.59,6.51c-1.34.63-7.03,1.53-8.19.97-2.11-1.02.72-5,1.8-6.05,1.5-1.45,5.11-3.3,7.19-3.3,1.91,0,3.21,1.13,5.22,1.01,2.73-.16,5.73-2.32,8.68-1.97.16-.99-.25-.52-.8-.66-2.5-.62-5.04-.14-6.87-2.63-.67-.92-1.79-3.73-.43-4.34,2.96-1.33,6.32-.27,7.6,2.73,1.25,2.92.11,4.48,4.26,4.9s8.31.15,12.38.7c1.39.19,2.75.67,4.12.94l-.97-2.13c-4.27.25-7.61-1.21-9.88-4.83-1.22-1.95-3.21-5.02-.02-5.71,4.2-.91,8.9-.67,10.71,3.85,1.21,3.01-.63,5.81,1,8.16,1.03,1.48,2.61,1.24,4.07,1.98-1.09-2.14-1.7-4.77.8-6.23,1.91-1.11,5.04,1.6,6.01,3.18,1.03,1.66,1.04,3.76,1.07,5.64l3.73,1c.8-.07.37-4.27,1.13-5.07,1.79-1.87,6.92,1.43,8.19,2.95,1.66,1.98,1.56,4.63,1.8,7.03l3.6,2.95c.48.08.59.03.47-.47-.2-.84-.77-1.74-.88-2.72-.15-1.26.12-5.63,1.88-4.82.32.15,3.64,3.18,3.93,3.6,1.43,2.06,1.37,4.49,1.32,6.88-.02,1.09-.54,2.05-.33,3.24.19,1.07,1.62,1.93,1.62,3.12-.97-.56-1.21-2.01-2.12-2.62-.48-.33-.83-.11-.82.17,0,.1,1.1,1.12,1.38,1.56.6.95,1.18,1.93,1.62,2.96,1.08,2.53,1.28,5.69,2.88,7.74-.07-3.28-1.77-6.08-2.61-9.16.87.75,1.51,1.78,2.29,2.62l-.66.17c-.09,1.2,1.47,2.37,2.1,3.46.52.89,1.03,1.87,1.45,2.8,1.11,2.46,1.44,5.33,3.15,7.31.29.01.16-.43.16-.65,1.72,3.84,1.93,1.91,4.56,3.78.99.7,2.38,2.61,1.95,3.85-1.16,1.3-3.03.81-4.54.54.47,1.32.35,3.07.73,4.33.75,2.49,5.06,2.94,6.23,6.84.99,3.29,1.12,6.03-3.18,5.47-.78-.1-2.89-1.46-3.13-.45-.54,2.2,5.39,1.66,4.58,5.88-.36,1.86-3.74.46-4.57-.49-.28.38,1.13,4.62,1.61,5.09.8.78,2.7.68,3.8,1.11,3.44,1.33,3.85,5.78,3.39,8.98-.39,2.74-2.95,2.14-4.71.85-.28-.2-.92-.76,0-.65,3.91,2.98,4.49.27,4.09-3.44-.37-3.46-2.94-5.24-6.18-5.69-.8,1.5-.8,3.01-.66,4.69l1.77,4.11c-1.5-1.3-2.52-3.72-2.48-5.72.03-1.19.8-2.47.62-3.52-.17-.97-1.47-2.54-1.42-3.85-.26-.45-.49-.22-.82,0,.26-2.32.62-5.39.67-7.67.01-.68.31-1.75-.67-1.49-.51,5.03-.64,11.06-2.28,15.87-.97,2.83-2.97,3.91-4.53,6.26-2.68,4.05-1.76,6.5-.37,10.88,3.84-.69,6.41-5.93,6.19-9.62-.1-1.68-.89-3.53-1.21-5.18.67-1.25,1.61-8.64,2.19-9.05-.27,2.48-1.46,6.48-1.46,8.34,0,4.36,2.35,6.46-.12,11.5-.55,1.12-3.75,4.72-4.86,4.93-1.55.3-2.57-4.79-2.68-6.01-.65-7.32,5.76-8.13,7.06-14.44.66-3.23.78-6.92,1.39-10.21-2.01,1.5-1.24,4.63-2.32,6.99-.94,2.04-4.92,5.06-7.18,4.64-2.31-.43-.25-6.23.61-7.61,2.68-4.29,5.93-1.67,8.64-5.09.26-4.02.77-8.02,1.23-12.01,0-.04.32-.22.32-.75-.01-1.08-.75-4.06-1.62-4.81,0,.43,0,.87,0,1.31-.67-.3-1.35,1.81-1.95,2.47-2.13,2.35-3.24,2.23-4.56-.7-2.27-5.06,1.35-7.63,4.15-11.02l-3.87-9.38-.64.16.9,3.29-.75.49c-1.12-.02-1.52-2.74-1.83-3.57-1.51-.09-3.22.45-4.56-.58-1.04-2.33.53-2.92,2.64-2.73l-.98-1.63,1.63.65c-.44-1.39-2.46-2.43-3.77-2.93-.88-.34.23,1.18-.64.65-.79-.49-.95-1.31-2.29-1.32-1.98-.01-6.7,3.29-8.34,2.48-.26-.13-.52-.46-.6-.74-.96-3.27,6.37-5.91,8.9-5.36l.2-.94c.61-.36,3.22,3.1,4.58,2.61-.09-2.96,1.14-5.84-.38-8.61-.41-.74-3.73-4.61-4.35-4.47-1.36,2.12-1.09,4.83-.18,7.04.45,1.09,1.38,1.69,1.65,2.77l-6.38-4.57.17,1.3c-1.71-.1-2.5,1.36-4.07,1.98-2.26.88-6.27.87-7.01-1.75l3.22-2.99c-1.31-1.79-3.5-2.89-5.71-3.13-5.2-.56-3.74,1.78-6.21,4.58-2.29,2.6-6.15,3.1-9.46,2.59-3.05-.47-.7-4.33.48-5.69,1.77-2.05,5.97-3.57,8.59-3.04.73.15,2.99,1.92,3.5.74.27-.64-.61-.52-.98-.64-1.41-.48-2.99-1.06-4.25-1.48,4.01.84,7.83,2.21,11.77,3.27.16-.83-.16-.58-.63-.82-1.88-.97-4.8-1.21-6.88-1.8.12-.73,1.22.04,1.8-.65,2.1-2.47-4.37-10.43-6.67-6.34-.96,1.7-.11,3.66,1.26,4.88l2.62,1.46c-3.01-.14-5.67-1.71-8.5-2.45-4.77-1.26-11.18-1.46-16.19-1.79-3.26-.22-6.16.29-9.31.98-.07.58.74.32,1.1.28,2.47-.23,5.08-.82,7.57-.63,8.06.63,14.43,1.07,22.06,3.61ZM139.23.75c-.68.11-2.19.59-2.2,1.38,0,.56,1.96,4.13,2.45,4.76,1.97,2.56,5.63,4.46,8.87,3.29,1.32-3.17-.12-8.72-4.03-9.43-1.2-.22-3.86-.2-5.08,0ZM122.23,4.35c-2.22.41-1.76,1.61-.71,3.17,1.77,2.63,8.79,4.71,6.52-.31-.99-2.19-3.49-3.29-5.81-2.86ZM105.63,20.94c.36.52,5.15.14,6.02-.02,3.44-.62,6.29-3.66,6.27-7.18-5.24-2.48-10.4,2.82-12.29,7.21ZM172.88,14.85c-1.27-1.1-5.17-2.98-5.88-.71-1.31,4.14.95,7.14,4.34,9.28l3.29,1.12c-2.46.77-3.98-1.6-6.03-1.29-.84.13-3.13,1.68-2.14,2.43,2.01,1.53,6.18.75,8.18-.65l-.02-1.14h1.31c.46-3.41-.43-6.76-3.06-9.04ZM147.82,14.41c-1.96.13-3.91-1.19-5.8-.41-.47.2-3.06,2.75-3.31,3.23-.49.93-.82,2.47.67,2.34,3.89-.34,7.23-1.02,8.44-5.16ZM123.99,25.81c5.52-.01,10.11-4.14,8.14-9.95-5.16-.05-9.79,4.77-8.14,9.95ZM158.23,18.7c-.43-.69-3.51-.77-4.37-.69-2.99.28-6.74,3.01-7.47,5.95-.68,2.71,6.15,1.28,7.42.54.36-.21,3.93-3.98,4.15-4.35.24-.4.53-1.02.27-1.45ZM185.09,32.39c-.93-1.55-2.54-2.35-4.36-2.26s-8.55,1.96-7.71,4.67c.32.7.71.52,1.29.41,3.46-.65,6.75-4.33,10.78-2.81ZM188.99,40.54c.84-2.37-3.24-2.65-3.93-1.74-1.53,2.02,2.75,2.65,3.93,1.74ZM195.46,51.72c-.44.12-3.01,3.05-3.32,3.58-1.58,2.71-.93,5.73,1.33,7.82,2.11-1.13,4.2-4.4,4.36-6.74.09-1.27-.64-5.11-2.37-4.66ZM203.08,58.55c-.18-2.62-2.69-3.82-4.9-4.58-.27,4.11.79,5.4,4.9,4.58ZM200.24,74.14c.36.36,1.27.84,1.77,1.01,6.32,2.09,4.05-5.41,1.04-7.9-.33-.27-3.4-2.28-3.58-2.14.54,3.01-1.84,6.43.77,9.04ZM199.82,77.53c-2.01,2.61,4.27,6.29,3.91,2.8-.17-1.63-2.46-2.67-3.91-2.8ZM196.05,78.18c-4.61.62-8.9,4.83-7.38,9.66,4.93-.17,7.6-4.35,7.74-9l-.36-.66Z"/><path d="M197.19,47.11c1.23,1.38,1.6,2.79,3.38,3.65,1.45.71,2.9.93,4.47.59-.87-4.9-4.47-8.59-9.81-7.52.87,1.04,1.38,2.12,1.96,3.27-.4-.44-.69-1.12-1.31-.98.53,1.48,1.35,3.3,1.31,4.9-.97-2.18-1.39-4.49-2.33-6.66-1-2.31-2.6-4.28-3.88-6.42.51.55,1.22.93,1.77,1.66.62.82,1.42,2.81,2.02,3.21,1.06.7,2.05,0,3.23,0,3.93,0,6.93,4.58,7.68,8.06-1.13,2.35-5.32.67-6.84-.69-1.26-1.13-1.07-1.93-1.66-3.09Z"/><path d="M90.26,36.32c1.26-1.35,5.21-6.41,4.42-8.16-1.26-2.77-5.56-.31-7.19.98-3.08,2.43-5.31,6.83-5.07,10.78.29.32,7.03-3.14,7.85-3.6-2.66,2.85-6.38,2.83-9,5.55-.42.81,1.14,1.29,1.66,1.95,1.07,1.35.71,2.46-.11,3.85-1.94,3.25-4.92,2.47-7.26,5l.33-1.97c1.14.32,4-.98,5.01-1.69,1.86-1.31,3.47-4.77.55-5.7-1.41-.45-2.73,2.5-3.33,3.57-.5.88-.99,1.85-1.26,2.83l-.33-.98c-.29-.39-1.65,2.92-1.79,3.28-1.62,4.04-3.04,9.08-3.44,13.4-.57.08-.31-.74-.32-1.14-.04-1.01.1-2.14,0-3.11.25.05.63.12.66-.21l1.82-6.83c-.58-1.3-3.83-4.13-5.23-3.73-.87.25-.59,4.06-.39,4.91.5,2.15,2.89,3.58,3.13,5.86-.23-.05-2.74-3.23-3.01-3.7-1.48-2.56-1.47-5.17-.06-7.73,1.02-.31,5.33,2.08,5.36,3.57l.67-.19c.26-1.76,1.87-2.71.92-4.51-1.21-2.3-4.22-2.98-4.78-6.66-.25-1.63,1.03-7.75,2.77-8.21,1.23-.33,4.14,1.45,5.01,2.39,2.04,2.21,1.31,3.75,1.62,6.23.06.46.18.95.65.48.99-1.47.69-3.03,1.02-4.38,1.37-5.69,5.21-13.07,12.21-11.95,4.16.67.19,6.79-1.32,8.45-.81.89-.81.81-1.76,1.34ZM73.15,34.39c-3.63,4.93-2.29,10.83,2.85,14.01,4.61-4.23,4.49-13.17-2.85-14.01Z"/><path d="M71.3,72.45c.05-.79.65-2.04.33-3.11l.63.32c.33-.87,1.28-2.94,2-3.41,2.22-1.43,6.27-.74,5.81,2.51-.64,4.46-7.36,6.2-8.17,8.85-.54,1.78,1.36-.15,1.86-.76.23,1.1-1.58,1.87-2.19,3.04-1.9,3.63-1.06,9.17,3.18,10.6,3.56-1.9,4.86-6.44,3.27-10.04-.22-.51-1.87-3.38-2.15-3.73-.38-.46-.71-.55-1.28-.52l.79-.63c4.08,3.28,5.81,9.83,1.84,13.89-1.18,1.2-2.8,1.12-2.31,3.09l-1.47-2.28-.48,1.3c-1.09-2.7-4.71-1.77-7.18-3.45-6.58-4.47-1.44-9.57,4.88-7.67-.59-2.48-.19-7.13-2.63-8.65-.97-.61-2.27-.69-3.38-1.2-2.41-1.11-5.9-4.72-6.34-7.39-.18-1.1-.59-6.2-.34-7.05.57-1.9,4.51.45,5.6,1.14,3.15,2,5.89,6.19,6.09,9.96.06,1.18-.64,2.17-.63,3.23s.68,2.06.66,3.11c.93,1,.64-2.86.65-3.11.02-.4-.25-1.21.33-1.14v9.65c0,.06.44.52.65.49.12-2.31-.16-4.73,0-7.03ZM58.55,56.43v5.23c0,3.8,4.1,7.64,7.43,8.91.5.19,2.7,1.14,2.7.24v-5.56c0-3.34-4.66-7.62-7.62-8.73-.55-.21-2.28-.94-2.51-.1ZM76.46,66.14c-3.88.38-4.51,5.98-4.61,9.16,0,.16-.34.93.26.9.4-.02,5.51-4.32,6.05-5.06,1.63-2.24,1.87-5.34-1.7-4.99ZM70.97,88.96c.16-.16-.92-3.63-.94-4.45-.02-.88.83-2.91-.03-3.57-1.6-1.21-6.27.19-6.86,2.28.93,3.64,4.24,5.53,7.83,5.74Z"/><path d="M136.7,135.72c5.49-.63,11.21-.3,16.52-1.95,2.36-.73,4.55-2.17,7.02-2.62l-3.83,1.88-5.32,1.71c-.35.46,2.19,1.92.35,3.46-2.3,1.93-6.59-2-8.77-2.4-1.39-.26-2.66,0-4.01.25.89.97,1.98,1.46,2.95,2.44,5.13,5.16,2.84,7.28-3.75,5.38-5.13-1.48-5.83-3.42-9.34-6.52,3.92,2.58,8.73,7.22,13.81,6.45.72-.11,2.16-.25,1.73-1.22-.89-1.99-5.22-6.28-7.36-6.87ZM144.22,136.04c2.22.91,5.5,2.42,7.51.49-.37-.34-.74-.87-1.18-1.1-.9-.47-4.36-.22-5.51-.03-.39.06-.77.2-.83.64Z"/><path d="M128.52,137.36c-2.02-1.78-9.96-4.43-12.59-4.59-.9-.06.02.68-.3,1.65-.85,2.6-3.86,1.56-5.05-.23-.73-1.1-.91-3.12-1.7-3.86-1.49-1.38-5.76-2.39-7.18-4.42,2.14.28,5.61,3.69,7.36,3.92.64.09.52-.12.49-.65-.13.17-2.47-.91-1.15-.98l6.71,2.29-.98.97c.59.61,9.69,2.95,10.95,2.96.65,0,.52-.04.49-.66l-1.98-.15-5.87-1.81,7.31,1.6c1.83-2.96,1.86-6.09,5.78-7.31,3.24-1.01,6.79-1.25,7.18,2.93.24,2.51-.43,3.69-2.29,5.24-.14.71.32.5.81.48,1.22-.05,5.87-.59,6.56-1.29.49-.49.8-4.54,1.44-6.08,1.19-2.83,6.17-7.41,9.3-7.01,3.86.49,2.26,6.39.51,8.65-2.05,2.65-3.37,2.37-5.67,3.81-.32.2-.89.6-.37.93,4.79-1.12,9.07-3.33,13.54-5.27-.53-2.51-.3-5.11,1.84-6.83,3.61-2.89,4.49.7,4.58,3.92,1.59-1.64,3.04-1.95,4.02-4.16,1.54-3.48,1.21-6.41,4.64-9.09,1.62-1.26,7.14-3.93,8.21-1.32,2.47,6.05-7.93,11.24-12.45,12.61,1.08-2.05,3.58-2,5.46-2.88,3.22-1.5,8.63-6.16,5.99-10.04-2.46-1.2-7.46,2.23-8.78,4.3-1.47,2.31-1.54,6.07-3.32,8.12-1.29,1.48-3.5,2.1-4.58,3.76l.49.33c-1.54.91-3.15,2.53-5.07,2.45,1.55-.91,3.75-1.51,4.36-3.49.67-2.19.11-6.47-2.74-4.37-2.51,1.84-2.63,4.64-1.62,7.37-4.02.9-7.76,3.28-11.77,4.42-2.48.7-4.96.95-7.52,1.14l7.96-3.65c2.49-1.79,5.64-6.29,3.49-9.27-.32-.45-1.17-1.12-1.75-1.07-1.47.13-5.9,3.22-6.89,4.53-2.12,2.83-1.55,4.65-2.22,7.59-.57,2.5-6.35,1.93-8.43,2.2l.98.65c-3-.82-4.87,1.7-7.99.98l-.19.66ZM132.03,126.32c-3.91.66-5.64,4.74-6,8.28,4.11,4,12.09-.22,11.29-5.87-.42-2.94-2.82-2.82-5.29-2.4ZM110.4,130.19c-1.12.25-.04,2.03.32,2.56.78,1.16,3.97,4.08,4.4,1.15.33-2.23-2.99-3.38-4.72-3.71Z"/><path d="M79.15,104c.24-.23-.55-1.39-.72-1.73-.12-.24-.65-1.08.07-.72,2.53,4.82,6.19,8.93,10.46,12.27l-1.63-2.45c1.39-.73.24-3.21.36-4.86.41-5.72,3.24-3.44,5.33-.18,1.33,2.08,2.14,5.21,2.17,7.67.02,1.6-.83,3.28-.02,5.05l-1.3-.65.49,1.3-2.61-2.28c-2.72,1.71-5.66.85-8.36-.48-5.38-2.66-4.63-5.59,1.32-5.9-1.57-1.43-3.82-5.41-5.47-6.3-.43-.23-3.81-1.34-4.13-1.31-.97.1-2.01,1.87-3.15,2.38-2.59,1.16-6.29.38-8.51-1.3-.48-.37-2.15-2.06-2.36-2.55-1.29-2.98,3.93-4.77,6.13-4.75,5.56.06,6.43,6.67,11.93,6.8ZM65.65,97.87c-1.68.26-3.79,1.3-4.38,3.03,1.4,2.93,6.05,5.2,9.19,4.72,1.68-.26,2.73-1.9,4.1-2.76-2.36-3.06-4.66-5.66-8.91-4.99ZM93.86,117.41v-7.03c0-.47-1.03-2.98-1.36-3.54-.43-.73-2.82-4.03-3.7-2.83-1.1,3.77-.63,7.82,1.8,10.94.39.5,2.72,3.02,3.26,2.46ZM82.33,111.93c-1.78.32-2.63,1.56-1.01,2.82.43.33,6,2.82,6.57,2.91,1.24.2,3.9-.05,2.72-1.74-.17-.24-4.15-3.53-4.48-3.7-1.02-.53-2.68-.49-3.81-.29Z"/><path d="M107.27,127.87l-7.82-3.89-.03.62-2.61-3.59c1.73,1.49,6.54,4.88,8.68,5.21,1.27.2,4.68.16,5.79-.38,1.59-.77.96-2.18,2.03-3.2,2.57-2.46,11.41-2.01,13.27.8.99,1.5-2.21,5.18-3.72,5.81-2.35.97-6.68.54-8.85-.77-.75-.45-1.13-1.41-2.02-1.58-1.28-.24-3.17.12-4.53.03l-.2.94ZM123.83,127.76c.5-.46,2.49-3.25,2.25-3.81-3-3.08-13.18-3.75-13.42,1.93-.11,2.7,6.21,3.45,8.14,3.27,1.16-.11,2.18-.61,3.03-1.39Z"/><path d="M87.98,52.34c-.23,3.77-2.44,9.15-6.52,9.99-3.05.63-6.72-1.09-8.59,2.2l-1.24,4.48.65-6.54.81.98c2.32-1.48,1.61-4.02,2.61-6.22,2.05-4.49,7.89-5.17,12.27-4.9ZM75.55,61.82h6.05c.22,0,2.26-1.36,2.58-1.67,1.79-1.74,2.74-5.08,3.14-7.48-5.94-.32-12.49,2.1-11.77,9.15Z"/><path d="M95.17,121.34l.33-.82c3.68,4.73,6.51,10.26,11.93,13.25.32-1.05-1.74-1.81-2.63-2.61-.71-.64-1.68-1.58-2.28-2.29-.22-.26-.86-.66-.33-.98,1.81,2.41,4.98,3.47,6.38,6.21-2.53.19-5.57-2.58-7.19-4.42-1.19-1.36-2.14-3.38-3.6-4.58-1.72-1.41-4.05-2.13-5.9-3.91-3.95-3.82,1.94-1.45,3.27.16ZM97.13,123.95c.1-.7-.55-1.07-1.01-1.44-1.21-1.01-3.37-2.4-4.88-2.8.22.97,5.63,4.51,5.88,4.25Z"/><path d="M84.38,108.25c-3.26-2.7-4.86-6.87-7.19-10.31l.97-.16c.37-5.54,5.84-6.44,6.47-.07.31,3.13-2.58,5.3-2.58,6.77,0,1.31,2.08,2.43,2.32,3.76ZM81.76,103.68c.99-2.45,2.18-3.88,1.98-6.71-.37-5.32-5.3-3.11-5.27,1.32,0,1.23,1.73,3.95,2.55,4.98.21.26,0,.6.74.41Z"/><path d="M171.36,124.61l-.65.97c4.4.31,9.62,2.3,3.37,5.83-4.83,2.73-8.1.87-12.85-.59-.09-.56.78-.35,1.11-.3,2.75.46,3.76,1.91,7.24,1.62,2.19-.18,6.81-1.93,6.66-4.56-2.4-.84-4.54-1.67-7.16-1.34l2.29-1.63Z"/><path class="cls-3" d="M101.07,106.03l64.67-64.67"/><g class="cls-6"><g id="_2a3a976a41"><path class="cls-1" d="M154.99,70.9v.56c-.2,0-.5.28-.9.85-.39.56-.58,1.88-.58,3.95v32.99c0,2.03.19,3.34.58,3.93.4.58.7.86.9.86v.56h-7.35v-.56c.21,0,.51-.29.88-.86.38-.59.56-1.9.56-3.93v-32.99c0-2.07-.19-3.38-.56-3.95s-.67-.85-.88-.85v-.56h7.35Z"/></g></g><g class="cls-4"><g id="_50ee9eb6f8"><path class="cls-1" d="M119.03,71.25c-2.83,0-5.45-.53-7.85-1.58-2.4-1.06-4.48-2.37-6.22-3.91-1.74-1.54-3.03-3.01-3.87-4.42l1.5-5.54h.49s.25.5.75,1.5c.5.99,1.21,2.23,2.14,3.72.94,1.49,2.06,2.99,3.36,4.49,1.32,1.49,2.78,2.74,4.4,3.74,1.62.99,3.38,1.48,5.3,1.48.7,0,1.59-.12,2.67-.38,1.08-.25,2.17-.68,3.29-1.28,1.13-.6,2.06-1.41,2.8-2.42.75-1.01,1.13-2.26,1.13-3.76,0-2.04-.62-3.82-1.84-5.35-1.22-1.54-2.75-2.87-4.6-3.98-1.84-1.13-3.72-2.02-5.62-2.69-2.17-.79-4.2-1.75-6.09-2.89-1.88-1.14-3.41-2.55-4.6-4.23-1.18-1.68-1.77-3.68-1.77-6.01s.57-4.26,1.71-5.94c1.14-1.68,2.66-2.99,4.57-3.93,1.92-.94,3.99-1.41,6.24-1.41,2.82,0,5.15.38,6.99,1.13,1.85.75,3.38,1.74,4.58,2.97,1.2,1.22,2.2,2.55,2.99,4l-1.48,5.49h-.56s-.14-.43-.41-1.3c-.26-.87-.69-1.96-1.28-3.27-.58-1.32-1.35-2.62-2.33-3.91-.98-1.29-2.16-2.37-3.55-3.23-1.39-.87-3.04-1.32-4.94-1.32-.67,0-1.56.13-2.69.38-1.12.25-2.23.68-3.33,1.28-1.1.6-2.04,1.41-2.8,2.42-.77,1.01-1.15,2.27-1.15,3.78,0,1.99.61,3.77,1.82,5.32,1.23,1.55,2.77,2.87,4.64,3.95,1.86,1.08,3.76,1.97,5.67,2.69,2.15.74,4.18,1.69,6.07,2.86,1.89,1.16,3.42,2.58,4.6,4.25,1.17,1.65,1.77,3.66,1.77,6.03s-.58,4.26-1.75,5.94c-1.16,1.68-2.68,2.99-4.57,3.93-1.89.94-3.95,1.41-6.18,1.41Z"/></g></g><g class="cls-5"><g id="_48ff8cb950"><path class="cls-1" d="M101.17,173.55l-.13.02c-.05,0-.08,0-.08-.04,0-.11.07-.36.21-.76.14-.4.29-.7.47-.89.61-.61,1.28-.93,2.02-.93s1.36.24,1.82.72c.45.47.68,1.06.68,1.78s-.46,1.49-1.38,2.34c-.29.28-.53.5-.72.66-.26.22-.69.63-1.32,1.25-.63.61-.95.94-.95,1h3.52c.3,0,.52-.09.64-.26.06-.1.16-.36.28-.79h.23l-.26,1.68c-.03.1-.08.17-.15.21h-5.16s-.04-.06-.04-.17c0-.1.09-.26.28-.47.2-.23.44-.48.74-.78s.71-.72,1.23-1.25c1.32-1.33,1.99-2.41,1.99-3.21,0-.49-.18-.94-.55-1.34-.35-.4-.77-.61-1.25-.61s-.89.17-1.27.49c-.37.32-.61.73-.74,1.23-.01.08-.05.11-.11.11Z"/><path class="cls-1" d="M109.14,173.55l-.13.02c-.05,0-.08,0-.08-.04,0-.11.07-.36.21-.76.14-.4.29-.7.47-.89.61-.61,1.28-.93,2.02-.93s1.36.24,1.82.72c.45.47.68,1.06.68,1.78s-.46,1.49-1.38,2.34c-.29.28-.53.5-.72.66-.26.22-.69.63-1.32,1.25-.63.61-.95.94-.95,1h3.52c.3,0,.52-.09.64-.26.06-.1.16-.36.28-.79h.23l-.26,1.68c-.03.1-.08.17-.15.21h-5.16s-.04-.06-.04-.17c0-.1.09-.26.28-.47.2-.23.44-.48.74-.78s.71-.72,1.23-1.25c1.32-1.33,1.99-2.41,1.99-3.21,0-.49-.18-.94-.55-1.34-.35-.4-.77-.61-1.25-.61s-.89.17-1.27.49c-.37.32-.61.73-.74,1.23-.01.08-.05.11-.11.11Z"/><path class="cls-1" d="M117.13,178.92c0-.23.08-.42.23-.59.16-.16.36-.25.59-.25.21,0,.4.09.55.25.16.17.25.36.25.59s-.09.42-.25.57c-.15.15-.34.23-.55.23-.23,0-.43-.08-.59-.23-.15-.15-.23-.34-.23-.57Z"/><path class="cls-1" d="M122.3,173.14s-.07-.05-.11-.15c0,0,.07-.07.21-.17.15-.1.44-.35.89-.74.45-.39.82-.76,1.12-1.12h.34s.08.01.09.04c0,.01.02.04.02.08v7.6c0,.26.03.41.09.43.2.13.61.19,1.23.19.04,0,.06.01.06.04v.15s-.02.06-.06.06h-3.74s-.06-.02-.06-.06v-.15s.02-.04.06-.04c.2,0,.38-.02.53-.02.16,0,.33-.02.49-.04.17-.02.29-.06.36-.09.08-.04.12-.09.13-.17,0-.08.02-.17.02-.28v-6.64s-.05.04-.15.11c-.53.43-1.02.75-1.47.96h-.04Z"/><path class="cls-1" d="M130.27,173.14s-.07-.05-.11-.15c0,0,.07-.07.21-.17.15-.1.44-.35.89-.74.45-.39.82-.76,1.12-1.12h.34s.08.01.09.04c0,.01.02.04.02.08v7.6c0,.26.03.41.09.43.2.13.61.19,1.23.19.04,0,.06.01.06.04v.15s-.02.06-.06.06h-3.74s-.06-.02-.06-.06v-.15s.02-.04.06-.04c.2,0,.38-.02.53-.02.16,0,.33-.02.49-.04.17-.02.29-.06.36-.09.08-.04.12-.09.13-.17,0-.08.02-.17.02-.28v-6.64s-.05.04-.15.11c-.53.43-1.02.75-1.47.96h-.04Z"/><path class="cls-1" d="M137.75,178.92c0-.23.08-.42.23-.59.16-.16.36-.25.59-.25.21,0,.4.09.55.25.16.17.25.36.25.59s-.09.42-.25.57c-.15.15-.34.23-.55.23-.23,0-.43-.08-.59-.23-.15-.15-.23-.34-.23-.57Z"/><path class="cls-1" d="M142.41,173.55l-.13.02c-.05,0-.08,0-.08-.04,0-.11.07-.36.21-.76.14-.4.29-.7.47-.89.61-.61,1.28-.93,2.02-.93s1.36.24,1.82.72c.45.47.68,1.06.68,1.78s-.46,1.49-1.38,2.34c-.29.28-.53.5-.72.66-.26.22-.69.63-1.32,1.25-.63.61-.95.94-.95,1h3.52c.3,0,.52-.09.64-.26.06-.1.16-.36.28-.79h.23l-.26,1.68c-.03.1-.08.17-.15.21h-5.16s-.04-.06-.04-.17c0-.1.09-.26.28-.47.2-.23.44-.48.74-.78s.71-.72,1.23-1.25c1.32-1.33,1.99-2.41,1.99-3.21,0-.49-.18-.94-.55-1.34-.35-.4-.77-.61-1.25-.61s-.89.17-1.27.49c-.37.32-.61.73-.74,1.23-.01.08-.05.11-.11.11Z"/><path class="cls-1" d="M150.06,175.23c0-1.02.28-1.99.85-2.89.58-.92,1.21-1.38,1.91-1.38.55,0,1.05.22,1.49.64.44.42.77.96.98,1.64.23.68.34,1.39.34,2.14,0,1.13-.26,2.13-.76,2.97-.34.57-.75.96-1.23,1.19-.26.11-.51.17-.78.17-.51,0-.98-.2-1.42-.61-.43-.42-.77-.93-1.02-1.53-.26-.61-.38-1.19-.38-1.76v-.59ZM152.89,179.34c1.16,0,1.74-1.2,1.74-3.61,0-1.01-.02-1.68-.06-2.02-.09-.73-.26-1.29-.49-1.68-.3-.45-.74-.68-1.3-.68-1.05,0-1.62,1.06-1.7,3.18-.01.32-.02.69-.02,1.12,0,1.13.12,2.01.36,2.63.29.72.78,1.08,1.47,1.08Z"/><path class="cls-1" d="M158.35,173.55l-.13.02c-.05,0-.08,0-.08-.04,0-.11.07-.36.21-.76.14-.4.29-.7.47-.89.61-.61,1.28-.93,2.02-.93s1.36.24,1.82.72c.45.47.68,1.06.68,1.78s-.46,1.49-1.38,2.34c-.29.28-.53.5-.72.66-.26.22-.69.63-1.32,1.25-.63.61-.95.94-.95,1h3.52c.3,0,.52-.09.64-.26.06-.1.16-.36.28-.79h.23l-.26,1.68c-.03.1-.08.17-.15.21h-5.16s-.04-.06-.04-.17c0-.1.09-.26.28-.47.2-.23.44-.48.74-.78s.71-.72,1.23-1.25c1.32-1.33,1.99-2.41,1.99-3.21,0-.49-.18-.94-.55-1.34-.35-.4-.77-.61-1.25-.61s-.89.17-1.27.49c-.37.32-.61.73-.74,1.23-.01.08-.05.11-.11.11Z"/><path class="cls-1" d="M167.17,172.06l-.09,2.33v.06c.12-.11.35-.19.66-.25.33-.06.58-.09.76-.09.35,0,.75.1,1.19.3.44.19.81.48,1.12.87.31.38.47.81.47,1.29,0,.81-.17,1.45-.51,1.91-.33.45-.74.78-1.23.96s-1.01.28-1.55.28-.99-.1-1.38-.3c-.26-.12-.4-.28-.43-.47,0-.15.05-.27.15-.36.1-.09.21-.13.34-.13s.25.05.38.15c.14.1.27.21.42.32.15.11.29.22.43.32.14.1.3.15.49.15.39,0,.73-.12,1.02-.38.29-.25.5-.55.64-.91.15-.35.23-.68.23-.98,0-.57-.13-1.01-.38-1.32-.24-.31-.52-.53-.85-.64-.32-.11-.59-.17-.81-.17s-.42.03-.57.08c-.15.05-.28.11-.4.17-.11.07-.22.12-.3.17-.08.05-.13.09-.15.09-.03.01-.05.02-.08.02-.03,0-.04-.03-.04-.09l.19-4.2h3.18c.19,0,.31-.05.36-.15,0-.04.02-.08.04-.11h.26l-.15,1.06h-3.27c-.09,0-.13.01-.13.04Z"/></g></g><rect class="cls-2" x="59.29" y="150.76" width="156.09" height="19.36"/><path class="cls-1" d="M61.14,164.18c-.07,0-.1-.04-.11-.13-.05-.42-.09-.74-.11-.96-.03-.24-.05-.42-.06-.53-.01-.11-.02-.18-.02-.21v-.08s.02-.1.06-.15c.05-.06.1-.09.17-.09.05,0,.1.03.15.08.05.05.09.11.13.19.05.07.09.13.11.21.04.08.06.13.08.15.11.26.24.46.38.62.14.17.29.3.45.4.17.1.37.18.59.23.23.04.48.06.76.06.46,0,.83-.11,1.1-.34s.4-.59.4-1.1c0-.29-.07-.55-.19-.78-.13-.24-.29-.46-.49-.66-.2-.2-.43-.39-.7-.57-.26-.19-.54-.38-.81-.57-.26-.19-.53-.38-.79-.59-.26-.2-.5-.42-.7-.66-.2-.24-.37-.5-.49-.79-.13-.3-.19-.64-.19-1.02,0-.23.04-.43.11-.62.09-.2.2-.38.34-.53.14-.16.29-.31.47-.43.19-.12.38-.23.59-.32.21-.09.43-.15.64-.19.21-.05.42-.08.62-.08.16,0,.33.01.49.04.17.03.34.07.49.11.16.04.33.09.49.13.16.04.33.08.49.11l.43-.04s.06.02.08.06c0,.03.02.06.04.09l.19,1.55s-.03.05-.09.06h-.25c-.05,0-.09-.02-.09-.02-.01,0-.03-.04-.06-.08-.01-.05-.03-.1-.06-.15-.03-.05-.05-.1-.08-.15-.03-.06-.05-.11-.08-.15-.22-.33-.49-.57-.83-.72-.33-.16-.69-.25-1.08-.25-.18,0-.34.02-.49.06s-.28.1-.4.19c-.11.09-.2.2-.26.34-.07.13-.09.28-.09.45,0,.28.06.53.19.76.12.22.29.42.49.61.21.19.45.38.72.57.26.18.53.36.79.55.27.19.55.39.81.61.26.22.5.45.7.72.21.26.38.54.51.85.12.32.19.67.19,1.06,0,.26-.05.51-.13.74-.09.23-.22.43-.38.62-.15.18-.34.34-.55.49-.2.14-.43.26-.66.36-.24.09-.49.16-.74.21-.26.05-.5.08-.74.08-.3,0-.57-.03-.79-.08-.22-.05-.41-.1-.57-.15-.17-.05-.3-.09-.42-.13-.1-.05-.19-.08-.26-.08h-.08l-.42.06Z"/><path class="cls-1" d="M69.56,164.05s.02-.04.06-.04c.08,0,.17-.02.28-.04.11-.02.23-.07.34-.13.12-.06.24-.16.34-.28.11-.12.21-.3.28-.53l2.68-7.75v-.04s-.01-.06-.04-.11c-.03-.05-.04-.09-.04-.11,0,0,0-.02.04-.02h1.93s.02,0,.04.02c0,0,.02,0,.04.02l2.82,7.9c.04.13.08.24.11.32.05.09.1.17.15.25.05.07.12.13.21.19.09.05.19.11.32.17.06.03.14.06.25.09.11.04.22.06.32.06.02,0,.04,0,.04.02,0,.01.02.03.02.04v.25s0,.03-.02.04c0,.01-.01.02-.04.02h-4.67s-.05,0-.06-.02v-.32s.03-.02.06-.02h.04s.04-.02.06-.02h.21c.09,0,.18-.02.28-.04.11,0,.22-.02.32-.04.11-.02.21-.06.3-.11.09-.05.16-.11.21-.19.06-.08.09-.17.09-.28v-.08l-.87-2.42s-.03,0-.04-.04c-.01-.04-.03-.08-.06-.11-.01-.04-.04-.07-.08-.09-.04-.02-.09-.04-.15-.04h-2.4c-.05,0-.1.01-.15.04-.04.03-.07.06-.09.09-.03.03-.05.06-.06.09-.01.03-.02.05-.02.06-.15.42-.28.77-.38,1.06-.09.28-.17.51-.23.7-.07.19-.11.34-.15.43-.04.1-.07.18-.08.23-.01.04-.03.07-.04.08v.08s.02.03.02.04c.04.11.1.21.19.28.1.07.21.12.34.17.12.04.25.07.38.09.14.01.26.02.36.02h.17s.04,0,.04.02c0,.01.02.02.02.02v.26s0,.03-.02.04c0,.01-.01.02-.04.02h-3.59s-.06-.02-.06-.06v-.26ZM73.04,159.6s0,.03-.02.06v.08s0,.05.02.06c0,.01.04.02.08.02h2s.08,0,.09-.02c0-.02.02-.05.02-.08,0-.02,0-.04-.02-.06v-.06l-.89-2.44c-.03-.06-.07-.1-.11-.13-.04-.02-.08-.04-.11-.04s-.09.02-.13.06c-.04.03-.07.07-.08.11l-.85,2.44Z"/><path class="cls-1" d="M82,164.03v-.04s.03-.02.06-.02c.29,0,.52-.03.68-.09.16-.08.28-.17.36-.28.08-.12.12-.27.13-.43.02-.17.04-.36.06-.57.02-.57.06-1.12.09-1.66.04-.54.07-1.07.09-1.59.04-.52.07-1.03.09-1.53.04-.52.06-1.03.06-1.55v-.25c0-.1-.04-.19-.11-.26-.07-.09-.14-.16-.23-.21-.09-.05-.18-.09-.28-.11-.09-.02-.16-.04-.21-.04-.04,0-.06-.02-.06-.06v-.32s.03-.02.06-.02h2.34s.09.01.11.04c.04.03.07.06.09.09l2.89,6.47c.04.08.08.11.13.11.05,0,.08,0,.09-.04.02-.02.04-.06.06-.09l2.87-6.31c.04-.09.08-.15.11-.19.05-.05.1-.08.15-.08h2.34s.04,0,.04.02v.32s0,.03-.02.04c0,.01,0,.02-.02.02-.01,0-.07.01-.17.04-.09.01-.19.05-.3.09-.11.05-.22.13-.32.23-.09.09-.13.21-.13.36l.38,7.09c0,.13.05.24.11.32.06.09.14.17.23.23.1.05.2.09.3.13.1.03.19.05.28.08.1.01.18.02.25.02h.09s.04,0,.04.02c0,.01.02.03.02.04v.28s0,.03-.02.04c0,.01-.01.02-.04.02h-4.37s-.06-.02-.06-.06v-.28s.02-.06.06-.06c.1,0,.22,0,.36-.02.14,0,.26-.04.38-.08.12-.04.23-.09.32-.17.09-.09.13-.19.13-.32l-.32-5.43s0-.08-.02-.08c-.03,0-.05.02-.06.06l-2.91,6.31c-.03.05-.06.09-.09.09-.04.01-.1.02-.19.02h-.36c-.08,0-.13-.05-.17-.11l-2.84-6.26s-.03-.04-.04-.06c0-.02,0-.04-.02-.04-.04,0-.06.03-.06.09,0,.13,0,.32-.02.59-.01.26-.03.54-.06.87-.01.32-.03.66-.06,1.02-.03.35-.05.7-.08,1.04-.01.34-.03.66-.04.95-.01.29-.02.53-.02.72v.26c0,.09.05.17.11.23.08.07.16.12.26.17.11.04.23.07.36.09.14.03.27.04.42.04.02,0,.04,0,.04.02v.32s-.01.06-.04.06h-3.31s-.06-.02-.06-.06v-.28Z"/><path class="cls-1" d="M97.15,164.05s.02-.04.06-.04c.08,0,.17-.02.28-.04.11-.02.23-.07.34-.13.12-.06.24-.16.34-.28.11-.12.21-.3.28-.53l2.68-7.75v-.04s-.01-.06-.04-.11c-.03-.05-.04-.09-.04-.11,0,0,0-.02.04-.02h1.93s.02,0,.04.02c0,0,.02,0,.04.02l2.82,7.9c.04.13.08.24.11.32.05.09.1.17.15.25.05.07.12.13.21.19.09.05.19.11.32.17.06.03.14.06.25.09.11.04.22.06.32.06.02,0,.04,0,.04.02,0,.01.02.03.02.04v.25s0,.03-.02.04c0,.01-.01.02-.04.02h-4.67s-.05,0-.06-.02v-.32s.03-.02.06-.02h.04s.04-.02.06-.02h.21c.09,0,.18-.02.28-.04.11,0,.22-.02.32-.04.11-.02.21-.06.3-.11.09-.05.16-.11.21-.19.06-.08.09-.17.09-.28v-.08l-.87-2.42s-.03,0-.04-.04c-.01-.04-.03-.08-.06-.11-.01-.04-.04-.07-.08-.09-.04-.02-.09-.04-.15-.04h-2.4c-.05,0-.1.01-.15.04-.04.03-.07.06-.09.09-.03.03-.05.06-.06.09-.01.03-.02.05-.02.06-.15.42-.28.77-.38,1.06-.09.28-.17.51-.23.7-.07.19-.11.34-.15.43-.04.1-.07.18-.08.23-.01.04-.03.07-.04.08v.08s.02.03.02.04c.04.11.1.21.19.28.1.07.21.12.34.17.12.04.25.07.38.09.14.01.26.02.36.02h.17s.04,0,.04.02c0,.01.02.02.02.02v.26s0,.03-.02.04c0,.01-.01.02-.04.02h-3.59s-.06-.02-.06-.06v-.26ZM100.63,159.6s0,.03-.02.06v.08s0,.05.02.06c0,.01.04.02.08.02h2s.08,0,.09-.02c0-.02.02-.05.02-.08,0-.02,0-.04-.02-.06v-.06l-.89-2.44c-.03-.06-.07-.1-.11-.13-.04-.02-.08-.04-.11-.04s-.09.02-.13.06c-.04.03-.07.07-.08.11l-.85,2.44Z"/><path class="cls-1" d="M109.87,164.37s-.03,0-.04-.02c-.01,0-.02-.02-.02-.04v-.28s.02-.06.06-.06h.34c.06,0,.12-.02.17-.02.05,0,.09-.02.11-.04.11-.05.2-.12.26-.21.08-.09.13-.19.17-.3s.06-.24.08-.38c0-.14.02-.28.02-.43v-6.66c0-.12-.05-.22-.15-.28-.09-.08-.2-.13-.32-.17-.13-.04-.26-.06-.4-.08-.13,0-.22-.02-.28-.02-.03,0-.05,0-.06-.02v-.36s.03-.02.06-.02h3.01l5.75,6.33s.04.05.04.06c0,.01.02.02.04.02.02,0,.04,0,.04-.02v-3.99c0-.44-.02-.79-.06-1.06-.03-.26-.09-.46-.17-.61-.08-.14-.19-.23-.34-.26-.14-.05-.32-.08-.53-.08h-.34s-.05,0-.06-.02v-.36s.03-.02.06-.02h3.65s.06,0,.06.02v.32s0,.03-.02.04c0,.01-.01.02-.04.02-.09,0-.2.02-.34.06-.14.03-.28.08-.42.15-.13.07-.24.15-.34.25-.09.09-.13.2-.13.32v7.88c0,.08-.02.14-.06.19-.04.05-.09.09-.13.13-.05.02-.11.04-.19.06-.07,0-.12.02-.17.02-.09,0-.2-.02-.32-.06-.11-.04-.23-.12-.34-.25l-6.28-6.98s-.07-.04-.08-.04c-.01,0-.03-.02-.04-.02-.03,0-.04.02-.04.06v5.96c0,.13.02.24.08.32.06.09.14.17.23.23.1.07.21.11.32.15s.22.07.32.09c.11.03.21.05.3.06h.21s.02,0,.04.02v.32s0,.03-.02.04c0,.01,0,.02-.02.02h-3.67Z"/><path class="cls-1" d="M127.34,155.99c0-.09-.02-.14-.06-.15-.04,0-.09-.02-.13-.02h-2.27c-.17.03-.29.09-.38.19-.09.1-.17.22-.23.34-.05.13-.09.26-.11.42-.03.15-.05.29-.08.42-.01.05-.03.1-.04.15-.01.05-.02.09-.02.09-.01.01-.03.02-.06.02h-.21s-.04,0-.04-.02v-.23l.25-2.27s0-.09.04-.13c.04-.05.09-.08.15-.08.04,0,.07.01.09.04.04.01.07.03.09.06.02.03.05.05.08.08.02.01.05.03.08.04.05.03.09.05.13.06h7.3s.1-.03.15-.06c.02,0,.05-.02.08-.04l.08-.08s.05-.04.08-.06c.04-.02.07-.04.09-.04.08,0,.12.03.15.08.04.04.06.09.06.13l.25,2.27v.23s-.01.02-.04.02h-.21s-.05,0-.06-.02c-.01,0-.03-.04-.04-.09,0-.05,0-.1-.02-.15-.03-.12-.05-.26-.08-.42-.03-.15-.07-.29-.13-.42-.05-.12-.13-.24-.23-.34-.09-.1-.22-.16-.38-.19h-2.25c-.07,0-.11,0-.15.02-.04.01-.06.07-.06.15v7.07c0,.14.03.26.09.36.08.1.17.2.28.28.11.08.25.14.4.19.15.05.31.09.49.09.05.01.11.02.19.02h.19s.04,0,.04.02c0,.01.02.02.02.02v.26s0,.03-.02.04c0,.01-.01.02-.04.02h-5.18s-.03,0-.04-.02v-.32s.02-.02.04-.02h.19c.09,0,.16,0,.21-.02.16,0,.32-.04.47-.09.16-.05.29-.11.4-.19.11-.09.2-.18.26-.28.08-.1.11-.22.11-.36v-7.07Z"/><path class="cls-1" d="M135.38,164.05s.02-.04.06-.04c.08,0,.17-.02.28-.04.11-.02.23-.07.34-.13.12-.06.24-.16.34-.28.11-.12.21-.3.28-.53l2.68-7.75v-.04s-.01-.06-.04-.11c-.03-.05-.04-.09-.04-.11,0,0,0-.02.04-.02h1.93s.02,0,.04.02c0,0,.02,0,.04.02l2.82,7.9c.04.13.08.24.11.32.05.09.1.17.15.25.05.07.12.13.21.19.09.05.19.11.32.17.06.03.14.06.25.09.11.04.22.06.32.06.02,0,.04,0,.04.02,0,.01.02.03.02.04v.25s0,.03-.02.04c0,.01-.01.02-.04.02h-4.67s-.05,0-.06-.02v-.32s.03-.02.06-.02h.04s.04-.02.06-.02h.21c.09,0,.18-.02.28-.04.11,0,.22-.02.32-.04.11-.02.21-.06.3-.11.09-.05.16-.11.21-.19.06-.08.09-.17.09-.28v-.08l-.87-2.42s-.03,0-.04-.04c-.01-.04-.03-.08-.06-.11-.01-.04-.04-.07-.08-.09-.04-.02-.09-.04-.15-.04h-2.4c-.05,0-.1.01-.15.04-.04.03-.07.06-.09.09-.03.03-.05.06-.06.09-.01.03-.02.05-.02.06-.15.42-.28.77-.38,1.06-.09.28-.17.51-.23.7-.07.19-.11.34-.15.43-.04.1-.07.18-.08.23-.01.04-.03.07-.04.08v.08s.02.03.02.04c.04.11.1.21.19.28.1.07.21.12.34.17.12.04.25.07.38.09.14.01.26.02.36.02h.17s.04,0,.04.02c0,.01.02.02.02.02v.26s0,.03-.02.04c0,.01-.01.02-.04.02h-3.59s-.06-.02-.06-.06v-.26ZM138.86,159.6s0,.03-.02.06v.08s0,.05.02.06c0,.01.04.02.08.02h2s.08,0,.09-.02c0-.02.02-.05.02-.08,0-.02,0-.04-.02-.06v-.06l-.89-2.44c-.03-.06-.07-.1-.11-.13-.04-.02-.08-.04-.11-.04s-.09.02-.13.06c-.04.03-.07.07-.08.11l-.85,2.44Z"/><path class="cls-1" d="M153.82,159.58h2.42v-2.53h1.25v2.53h2.4v1.25h-2.4v2.5h-1.25v-2.5h-2.42v-1.25Z"/><path class="cls-1" d="M171.69,163.1c0,.15.02.28.06.38.05.1.12.18.21.25.09.07.19.11.32.13.12.03.27.04.43.04.02,0,.04.02.04.06v.4s-.01.02-.04.02h-3.93s-.05,0-.06-.02v-.43s.03-.02.06-.02c.15,0,.29,0,.42-.02.12-.02.23-.07.32-.13.09-.06.16-.16.21-.28.05-.12.08-.29.08-.51v-6.71c0-.14-.03-.26-.08-.36-.05-.11-.12-.2-.21-.26-.08-.06-.18-.1-.3-.13-.13-.02-.27-.04-.43-.04-.04,0-.06-.02-.06-.06v-.36s.02-.04.06-.04h3.93s.04,0,.04.02c0,.01.02.02.02.02v.36s0,.03-.02.04c0,.01-.01.02-.04.02-.15,0-.29.01-.42.04-.13.01-.24.06-.32.13-.09.07-.16.16-.21.28-.05.13-.08.3-.08.51v6.69Z"/><path class="cls-1" d="M180.26,164.56c-.11,0-.18-.05-.21-.15l-3.46-8.41c-.05-.09-.11-.16-.17-.23-.07-.08-.13-.14-.19-.19-.07-.05-.13-.08-.19-.09-.07-.02-.11-.04-.15-.06-.04,0-.08-.02-.11-.02-.04,0-.08-.02-.11-.02-.04,0-.08-.02-.11-.02-.03,0-.04-.02-.04-.02-.04,0-.06-.02-.06-.06v-.26s.02-.04.06-.04h4.52s.04,0,.04.02c0,0,.02,0,.02.02v.26s0,.03-.02.04c0,.01-.01.02-.04.02h-.09c-.11.01-.24.03-.38.06-.14.01-.27.05-.4.09-.13.05-.24.12-.32.21-.08.09-.11.22-.11.38,0,.05,0,.11.02.19.02.08.05.14.08.19l2.38,5.77v.04s.02,0,.04.02c0,.01.02.02.02.02.04,0,.06-.02.08-.08l2.19-5.9s.02-.09.04-.13c.02-.05.04-.09.04-.13,0-.16-.05-.3-.15-.42-.1-.11-.24-.18-.42-.21-.03,0-.07,0-.13-.02-.07,0-.13-.02-.19-.04-.07,0-.13-.02-.19-.02-.07,0-.11-.02-.13-.02-.04,0-.06-.02-.06-.06v-.28s.02-.02.06-.02h3.55s.04,0,.04.02c0,.01.02.02.02.02v.26s0,.03-.02.04c0,.01-.01.02-.04.02h-.25c-.24.05-.44.15-.61.28-.15.14-.28.3-.4.49s-.21.39-.28.61c-.08.22-.15.43-.23.62l-2.57,6.96c-.04.11-.09.18-.15.21-.05.02-.13.04-.23.04h-.98Z"/><path class="cls-1" d="M188.13,164.05s.02-.04.06-.04c.08,0,.17-.02.28-.04.11-.02.23-.07.34-.13.12-.06.24-.16.34-.28.11-.12.21-.3.28-.53l2.68-7.75v-.04s-.01-.06-.04-.11c-.03-.05-.04-.09-.04-.11,0,0,0-.02.04-.02h1.93s.02,0,.04.02c0,0,.02,0,.04.02l2.82,7.9c.04.13.08.24.11.32.05.09.1.17.15.25.05.07.12.13.21.19.09.05.19.11.32.17.06.03.14.06.25.09.11.04.22.06.32.06.02,0,.04,0,.04.02,0,.01.02.03.02.04v.25s0,.03-.02.04c0,.01-.01.02-.04.02h-4.67s-.05,0-.06-.02v-.32s.03-.02.06-.02h.04s.04-.02.06-.02h.21c.09,0,.18-.02.28-.04.11,0,.22-.02.32-.04.11-.02.21-.06.3-.11.09-.05.16-.11.21-.19.06-.08.09-.17.09-.28v-.08l-.87-2.42s-.03,0-.04-.04c-.01-.04-.03-.08-.06-.11-.01-.04-.04-.07-.08-.09-.04-.02-.09-.04-.15-.04h-2.4c-.05,0-.1.01-.15.04-.04.03-.07.06-.09.09-.03.03-.05.06-.06.09-.01.03-.02.05-.02.06-.15.42-.28.77-.38,1.06-.09.28-.17.51-.23.7-.07.19-.11.34-.15.43-.04.1-.07.18-.08.23-.01.04-.03.07-.04.08v.08s.02.03.02.04c.04.11.1.21.19.28.1.07.21.12.34.17.12.04.25.07.38.09.14.01.26.02.36.02h.17s.04,0,.04.02c0,.01.02.02.02.02v.26s0,.03-.02.04c0,.01-.01.02-.04.02h-3.59s-.06-.02-.06-.06v-.26ZM191.6,159.6s0,.03-.02.06v.08s0,.05.02.06c0,.01.04.02.08.02h2s.08,0,.09-.02c0-.02.02-.05.02-.08,0-.02,0-.04-.02-.06v-.06l-.89-2.44c-.03-.06-.07-.1-.11-.13-.04-.02-.08-.04-.11-.04s-.09.02-.13.06c-.04.03-.07.07-.08.11l-.85,2.44Z"/><path class="cls-1" d="M200.85,164.37s-.03,0-.04-.02c-.01,0-.02-.02-.02-.04v-.28s.02-.06.06-.06h.34c.06,0,.12-.02.17-.02.05,0,.09-.02.11-.04.11-.05.2-.12.26-.21.08-.09.13-.19.17-.3s.06-.24.08-.38c0-.14.02-.28.02-.43v-6.66c0-.12-.05-.22-.15-.28-.09-.08-.2-.13-.32-.17-.13-.04-.26-.06-.4-.08-.13,0-.22-.02-.28-.02-.03,0-.05,0-.06-.02v-.36s.03-.02.06-.02h3.01l5.75,6.33s.04.05.04.06c0,.01.02.02.04.02.02,0,.04,0,.04-.02v-3.99c0-.44-.02-.79-.06-1.06-.03-.26-.09-.46-.17-.61-.08-.14-.19-.23-.34-.26-.14-.05-.32-.08-.53-.08h-.34s-.05,0-.06-.02v-.36s.03-.02.06-.02h3.65s.06,0,.06.02v.32s0,.03-.02.04c0,.01-.01.02-.04.02-.09,0-.2.02-.34.06-.14.03-.28.08-.42.15-.13.07-.24.15-.34.25-.09.09-.13.2-.13.32v7.88c0,.08-.02.14-.06.19-.04.05-.09.09-.13.13-.05.02-.11.04-.19.06-.07,0-.12.02-.17.02-.09,0-.2-.02-.32-.06-.11-.04-.23-.12-.34-.25l-6.28-6.98s-.07-.04-.08-.04c-.01,0-.03-.02-.04-.02-.03,0-.04.02-.04.06v5.96c0,.13.02.24.08.32.06.09.14.17.23.23.1.07.21.11.32.15s.22.07.32.09c.11.03.21.05.3.06h.21s.02,0,.04.02v.32s0,.03-.02.04c0,.01,0,.02-.02.02h-3.67Z"/></g></svg>